<svg xmlns="http://www.w3.org/2000/svg" viewBox="0 0 100 100"><circle cx="50" cy="50" r="42" fill="none" stroke="#c8d1f0" stroke-width="2.6"></circle><line x1="50.00" y1="8.00" x2="50.00" y2="13.00" stroke="#c8d1f0" stroke-width="1.4"></line><line x1="60.87" y1="9.43" x2="59.58" y2="14.26" stroke="#c8d1f0" stroke-width="1.4"></line><line x1="71.00" y1="13.63" x2="68.50" y2="17.96" stroke="#c8d1f0" stroke-width="1.4"></line><line x1="79.70" y1="20.30" x2="76.16" y2="23.84" stroke="#c8d1f0" stroke-width="1.4"></line><line x1="86.37" y1="29.00" x2="82.04" y2="31.50" stroke="#c8d1f0" stroke-width="1.4"></line><line x1="90.57" y1="39.13" x2="85.74" y2="40.42" stroke="#c8d1f0" stroke-width="1.4"></line><line x1="92.00" y1="50.00" x2="87.00" y2="50.00" stroke="#c8d1f0" stroke-width="1.4"></line><line x1="90.57" y1="60.87" x2="85.74" y2="59.58" stroke="#c8d1f0" stroke-width="1.4"></line><line x1="86.37" y1="71.00" x2="82.04" y2="68.50" stroke="#c8d1f0" stroke-width="1.4"></line><line x1="79.70" y1="79.70" x2="76.16" y2="76.16" stroke="#c8d1f0" stroke-width="1.4"></line><line x1="71.00" y1="86.37" x2="68.50" y2="82.04" stroke="#c8d1f0" stroke-width="1.4"></line><line x1="60.87" y1="90.57" x2="59.58" y2="85.74" stroke="#c8d1f0" stroke-width="1.4"></line><line x1="50.00" y1="92.00" x2="50.00" y2="87.00" stroke="#c8d1f0" stroke-width="1.4"></line><line x1="39.13" y1="90.57" x2="40.42" y2="85.74" stroke="#c8d1f0" stroke-width="1.4"></line><line x1="29.00" y1="86.37" x2="31.50" y2="82.04" stroke="#c8d1f0" stroke-width="1.4"></line><line x1="20.30" y1="79.70" x2="23.84" y2="76.16" stroke="#c8d1f0" stroke-width="1.4"></line><line x1="13.63" y1="71.00" x2="17.96" y2="68.50" stroke="#c8d1f0" stroke-width="1.4"></line><line x1="9.43" y1="60.87" x2="14.26" y2="59.58" stroke="#c8d1f0" stroke-width="1.4"></line><line x1="8.00" y1="50.00" x2="13.00" y2="50.00" stroke="#c8d1f0" stroke-width="1.4"></line><line x1="9.43" y1="39.13" x2="14.26" y2="40.42" stroke="#c8d1f0" stroke-width="1.4"></line><line x1="13.63" y1="29.00" x2="17.96" y2="31.50" stroke="#c8d1f0" stroke-width="1.4"></line><line x1="20.30" y1="20.30" x2="23.84" y2="23.84" stroke="#c8d1f0" stroke-width="1.4"></line><line x1="29.00" y1="13.63" x2="31.50" y2="17.96" stroke="#c8d1f0" stroke-width="1.4"></line><line x1="39.13" y1="9.43" x2="40.42" y2="14.26" stroke="#c8d1f0" stroke-width="1.4"></line><line x1="50.00" y1="33.00" x2="50.00" y2="8.00" stroke="#c8d1f0" stroke-width="1.8" stroke-linecap="round"></line><line x1="64.72" y1="41.50" x2="86.37" y2="29.00" stroke="#c8d1f0" stroke-width="1.8" stroke-linecap="round"></line><line x1="64.72" y1="58.50" x2="86.37" y2="71.00" stroke="#c8d1f0" stroke-width="1.8" stroke-linecap="round"></line><line x1="50.00" y1="67.00" x2="50.00" y2="92.00" stroke="#c8d1f0" stroke-width="1.8" stroke-linecap="round"></line><line x1="35.28" y1="58.50" x2="13.63" y2="71.00" stroke="#c8d1f0" stroke-width="1.8" stroke-linecap="round"></line><line x1="35.28" y1="41.50" x2="13.63" y2="29.00" stroke="#c8d1f0" stroke-width="1.8" stroke-linecap="round"></line><circle cx="50" cy="50" r="30" fill="none" stroke="#c8d1f0" stroke-width="1.3"></circle><polygon points="50.00,33.00 64.72,41.50 64.72,58.50 50.00,67.00 35.28,58.50 35.28,41.50" fill="none" stroke="#c8d1f0" stroke-width="2.4" stroke-linejoin="miter"></polygon><polygon points="50.00,41.50 57.36,45.75 57.36,54.25 50.00,58.50 42.64,54.25 42.64,45.75" fill="#c8d1f0"></polygon></svg>